<svg width="36" height="32" viewBox="0 0 36 32" fill="none" xmlns="http://www.w3.org/2000/svg">
<path d="M25.5 7.91528C25.5 11.3278 20.9312 17.409 18.925 19.9153C18.4437 20.5153 17.55 20.5153 17.075 19.9153C15.0688 17.409 10.5 11.3278 10.5 7.91528C10.5 3.77153 13.8562 0.415283 18 0.415283C22.1437 0.415283 25.5 3.77153 25.5 7.91528ZM26 12.9403C26.2188 12.509 26.4188 12.0778 26.6 11.6528C26.6313 11.5778 26.6625 11.4965 26.6938 11.4215L33.9437 8.52153C34.9312 8.12778 36 8.85278 36 9.91528V26.8403C36 27.4528 35.625 28.0028 35.0563 28.234L26 31.8528V12.9403ZM8.6 9.05903C8.75 9.94028 9.05 10.8278 9.4 11.6528C9.58125 12.0778 9.78125 12.509 10 12.9403V28.6528L2.05625 31.834C1.06875 32.2278 0 31.5028 0 30.4403V13.5153C0 12.9028 0.375 12.3528 0.94375 12.1215L8.60625 9.05903H8.6ZM20.4875 21.1653C21.3562 20.0778 22.7188 18.309 24 16.3528V31.934L12 28.5028V16.3528C13.2812 18.309 14.6438 20.0778 15.5125 21.1653C16.7938 22.7653 19.2062 22.7653 20.4875 21.1653ZM18 9.91528C18.663 9.91528 19.2989 9.65189 19.7678 9.18305C20.2366 8.71421 20.5 8.07832 20.5 7.41528C20.5 6.75224 20.2366 6.11636 19.7678 5.64752C19.2989 5.17868 18.663 4.91528 18 4.91528C17.337 4.91528 16.7011 5.17868 16.2322 5.64752C15.7634 6.11636 15.5 6.75224 15.5 7.41528C15.5 8.07832 15.7634 8.71421 16.2322 9.18305C16.7011 9.65189 17.337 9.91528 18 9.91528Z" fill="#598CC8"/>
</svg>
