<svg width="36" height="32" viewBox="0 0 36 32" fill="none" xmlns="http://www.w3.org/2000/svg">
<path d="M24.2084 2.52667C24.3575 2.52667 24.4784 2.34941 24.4784 2.13078V0.811168C24.4784 0.592541 24.3575 0.415283 24.2084 0.415283H17.5488C17.3997 0.415283 17.2788 0.592541 17.2788 0.811168V2.28742C17.2788 2.50605 17.3997 2.68331 17.5488 2.68331H19.4675C20.0819 2.68331 20.5533 3.01182 20.8392 3.58236H17.5488C17.3997 3.58236 17.2788 3.75962 17.2788 3.97824V5.29786C17.2788 5.51649 17.3997 5.69374 17.5488 5.69374H21.1206C20.9808 6.88423 20.379 7.62804 19.4387 7.62804H17.5488C17.3997 7.62804 17.2788 7.80529 17.2788 8.02392V9.77281C17.2788 9.88329 17.3103 9.98876 17.3657 10.0637L21.0791 15.09C21.129 15.1575 21.1944 15.195 21.2623 15.195H23.1198C23.3656 15.195 23.4835 14.7526 23.3029 14.5082L19.9083 9.91341C21.6294 9.83621 22.8588 8.15189 23.0202 5.69374H24.2084C24.3575 5.69374 24.4784 5.51649 24.4784 5.29786V3.97824C24.4784 3.75962 24.3575 3.58236 24.2084 3.58236H22.888C22.8095 3.20162 22.7017 2.84846 22.5673 2.52667H24.2084Z" fill="#598CC8"/>
<path d="M35.3293 20.1485C34.5918 19.4621 33.4419 19.507 32.6669 20.1485L26.8923 24.889C26.1861 25.4728 25.3049 25.7871 24.3924 25.7871H16.9991C16.4491 25.7871 15.9991 25.3252 15.9991 24.7607C15.9991 24.1962 16.4491 23.7344 16.9991 23.7344H21.8925C22.8862 23.7344 23.8112 23.0352 23.9737 22.028C24.1799 20.7451 23.2175 19.6289 21.9988 19.6289H11.9993C10.3119 19.6289 8.68077 20.2255 7.36834 21.316L4.46225 23.7344H0.999945C0.449975 23.7344 0 24.1962 0 24.7607V30.9189C0 31.4834 0.449975 31.9453 0.999945 31.9453H23.2987C24.2049 31.9453 25.0861 31.631 25.7986 31.0472L35.2481 23.2853C36.198 22.5091 36.273 21.0209 35.3293 20.1485Z" fill="#598CC8"/>
</svg>
