<svg width="40" height="33" viewBox="0 0 40 33" fill="none" xmlns="http://www.w3.org/2000/svg">
<path d="M21.1125 0.752783C20.4375 0.302783 19.5625 0.302783 18.8875 0.752783L10.3938 6.41528H3C1.34375 6.41528 0 7.75903 0 9.41528V29.4153C0 31.0715 1.34375 32.4153 3 32.4153H16V26.4153C16 24.209 17.7938 22.4153 20 22.4153C22.2062 22.4153 24 24.209 24 26.4153V32.4153H37C38.6562 32.4153 40 31.0715 40 29.4153V9.41528C40 7.75903 38.6562 6.41528 37 6.41528H29.6063L21.1125 0.752783ZM6 12.4153H8C8.55 12.4153 9 12.8653 9 13.4153V17.4153C9 17.9653 8.55 18.4153 8 18.4153H6C5.45 18.4153 5 17.9653 5 17.4153V13.4153C5 12.8653 5.45 12.4153 6 12.4153ZM31 13.4153C31 12.8653 31.45 12.4153 32 12.4153H34C34.55 12.4153 35 12.8653 35 13.4153V17.4153C35 17.9653 34.55 18.4153 34 18.4153H32C31.45 18.4153 31 17.9653 31 17.4153V13.4153ZM6 20.4153H8C8.55 20.4153 9 20.8653 9 21.4153V25.4153C9 25.9653 8.55 26.4153 8 26.4153H6C5.45 26.4153 5 25.9653 5 25.4153V21.4153C5 20.8653 5.45 20.4153 6 20.4153ZM31 21.4153C31 20.8653 31.45 20.4153 32 20.4153H34C34.55 20.4153 35 20.8653 35 21.4153V25.4153C35 25.9653 34.55 26.4153 34 26.4153H32C31.45 26.4153 31 25.9653 31 25.4153V21.4153ZM14.5 11.4153C14.5 9.95659 15.0795 8.55765 16.1109 7.5262C17.1424 6.49475 18.5413 5.91528 20 5.91528C21.4587 5.91528 22.8576 6.49475 23.8891 7.5262C24.9205 8.55765 25.5 9.95659 25.5 11.4153C25.5 12.874 24.9205 14.2729 23.8891 15.3044C22.8576 16.3358 21.4587 16.9153 20 16.9153C18.5413 16.9153 17.1424 16.3358 16.1109 15.3044C15.0795 14.2729 14.5 12.874 14.5 11.4153ZM20 8.41528C19.45 8.41528 19 8.86528 19 9.41528V11.4153C19 11.9653 19.45 12.4153 20 12.4153H22C22.55 12.4153 23 11.9653 23 11.4153C23 10.8653 22.55 10.4153 22 10.4153H21V9.41528C21 8.86528 20.55 8.41528 20 8.41528Z" fill="#598CC8"/>
</svg>
