<svg width="28" height="33" viewBox="0 0 28 33" fill="none" xmlns="http://www.w3.org/2000/svg">
<path d="M15.499 3.41528V16.4153H18.499V4.08403C19.9928 4.94653 20.999 6.56528 20.999 8.41528V16.4153H23.999V8.41528C23.999 3.99653 20.4178 0.415283 15.999 0.415283H11.999C7.58029 0.415283 3.99904 3.99653 3.99904 8.41528V16.4153H6.99904V8.41528C6.99904 6.56528 8.00529 4.94653 9.49904 4.08403V16.4153H12.499V3.41528H15.499ZM2.99904 18.4153C2.24279 18.4153 1.54904 18.8403 1.21154 19.5215L0.211543 21.5215C-0.100957 22.1403 -0.0634573 22.8778 0.299043 23.4653C0.661543 24.0528 1.30529 24.4153 1.99904 24.4153V30.4153C1.99904 31.5215 2.89279 32.4153 3.99904 32.4153C5.10529 32.4153 5.99904 31.5215 5.99904 30.4153V24.4153H21.999V30.4153C21.999 31.5215 22.8928 32.4153 23.999 32.4153C25.1053 32.4153 25.999 31.5215 25.999 30.4153V24.4153C26.6928 24.4153 27.3365 24.059 27.699 23.4653C28.0615 22.8715 28.099 22.1403 27.7865 21.5215L26.7865 19.5215C26.449 18.8403 25.7553 18.4153 24.999 18.4153H2.99904Z" fill="#598CC8"/>
</svg>
