<svg width="40" height="29" viewBox="0 0 40 29" fill="none" xmlns="http://www.w3.org/2000/svg">
<path d="M20.001 0.415283C19.4947 0.415283 18.9947 0.502783 18.5197 0.671533L0.988462 7.00278C0.394712 7.22153 0.000962017 7.78403 0.000962017 8.41528C0.000962017 9.04653 0.394712 9.60903 0.988462 9.82778L4.60721 11.134C3.58221 12.7465 3.00096 14.6528 3.00096 16.659V18.4153C3.00096 20.1903 2.32596 22.0215 1.60721 23.4653C1.20096 24.2778 0.738462 25.0778 0.200962 25.8153C0.000962019 26.084 -0.055288 26.434 0.057212 26.7528C0.169712 27.0715 0.432212 27.309 0.757212 27.3903L4.75721 28.3903C5.01971 28.459 5.30096 28.409 5.53221 28.2653C5.76346 28.1215 5.92596 27.884 5.97596 27.6153C6.51346 24.9403 6.24471 22.5403 5.84471 20.8215C5.64471 19.934 5.37596 19.0278 5.00096 18.1965V16.659C5.00096 14.7715 5.63846 12.9903 6.74471 11.5653C7.55096 10.5965 8.59471 9.81528 9.81971 9.33403L19.6322 5.47778C20.1447 5.27778 20.726 5.52778 20.926 6.04028C21.126 6.55278 20.876 7.13403 20.3635 7.33403L10.551 11.1903C9.77596 11.4965 9.09471 11.9653 8.53846 12.5403L18.5135 16.1403C18.9885 16.309 19.4885 16.3965 19.9947 16.3965C20.501 16.3965 21.001 16.309 21.476 16.1403L39.0135 9.82778C39.6072 9.61528 40.001 9.04653 40.001 8.41528C40.001 7.78403 39.6072 7.22153 39.0135 7.00278L21.4822 0.671533C21.0072 0.502783 20.5072 0.415283 20.001 0.415283ZM8.00096 23.9153C8.00096 26.1215 13.376 28.4153 20.001 28.4153C26.626 28.4153 32.001 26.1215 32.001 23.9153L31.0447 14.8278L22.1572 18.0403C21.4635 18.2903 20.7322 18.4153 20.001 18.4153C19.2697 18.4153 18.5322 18.2903 17.8447 18.0403L8.95721 14.8278L8.00096 23.9153Z" fill="#598CC8"/>
</svg>
